<svg width="16" height="16" viewBox="0 0 16 16" fill="none" xmlns="http://www.w3.org/2000/svg">
<path d="M13.5 7V4" stroke="black" stroke-linecap="round" stroke-linejoin="round"/>
<path d="M15 5.5H12" stroke="black" stroke-linecap="round" stroke-linejoin="round"/>
<path d="M10.5 1.5V3.5" stroke="black" stroke-linecap="round" stroke-linejoin="round"/>
<path d="M11.5 2.5H9.5" stroke="black" stroke-linecap="round" stroke-linejoin="round"/>
<path d="M13.5437 9.5375C12.562 9.81278 11.5247 9.8218 10.5384 9.56364C9.55213 9.30548 8.65231 8.78944 7.93139 8.06852C7.21047 7.3476 6.69444 6.44779 6.43628 5.46148C6.17811 4.47517 6.18714 3.43792 6.46241 2.45625C5.49458 2.72564 4.61421 3.24389 3.909 3.9594C3.20379 4.67491 2.69835 5.56269 2.44303 6.53433C2.18771 7.50597 2.19141 8.52755 2.45377 9.49731C2.71613 10.4671 3.22799 11.3512 3.93837 12.0615C4.64874 12.7719 5.53284 13.2838 6.50261 13.5461C7.47237 13.8085 8.49395 13.8122 9.46558 13.5569C10.4372 13.3016 11.325 12.7961 12.0405 12.0909C12.756 11.3857 13.2743 10.5053 13.5437 9.5375Z" stroke="black" stroke-linecap="round" stroke-linejoin="round"/>
</svg>
